<?xml version="1.0" encoding="UTF-8" standalone="no"?>
<!-- Generator: Adobe Illustrator 16.0.4, SVG Export Plug-In . SVG Version: 6.00 Build 0)  -->

<svg
   xmlns:dc="http://purl.org/dc/elements/1.1/"
   xmlns:cc="http://creativecommons.org/ns#"
   xmlns:rdf="http://www.w3.org/1999/02/22-rdf-syntax-ns#"
   xmlns:svg="http://www.w3.org/2000/svg"
   xmlns="http://www.w3.org/2000/svg"
   xmlns:sodipodi="http://sodipodi.sourceforge.net/DTD/sodipodi-0.dtd"
   xmlns:inkscape="http://www.inkscape.org/namespaces/inkscape"
   version="1.1"
   id="Capa_1"
   x="0px"
   y="0px"
   width="45"
   height="45"
   viewBox="0 0 45.000001 45.000001"
   enable-background="new 0 0 216 146"
   xml:space="preserve"
   sodipodi:docname="play-45.svg"
   inkscape:version="0.92.1 r"><metadata
     id="metadata9"><rdf:RDF><cc:Work
         rdf:about=""><dc:format>image/svg+xml</dc:format><dc:type
           rdf:resource="http://purl.org/dc/dcmitype/StillImage" /><dc:title></dc:title></cc:Work></rdf:RDF></metadata><defs
     id="defs7" /><sodipodi:namedview
     pagecolor="#ffffff"
     bordercolor="#666666"
     borderopacity="1"
     objecttolerance="10"
     gridtolerance="10"
     guidetolerance="10"
     inkscape:pageopacity="0"
     inkscape:pageshadow="2"
     inkscape:window-width="1005"
     inkscape:window-height="826"
     id="namedview5"
     showgrid="false"
     fit-margin-top="0"
     fit-margin-left="0"
     fit-margin-right="0"
     fit-margin-bottom="0"
     inkscape:zoom="5.724659"
     inkscape:cx="33.336832"
     inkscape:cy="32.247735"
     inkscape:window-x="589"
     inkscape:window-y="255"
     inkscape:window-maximized="0"
     inkscape:current-layer="Capa_1" /><path
     d="M 41.983027,11.20595 C 39.971113,7.758906 37.241813,5.029606 33.794769,3.017692 30.347006,1.005777 26.583162,0 22.500719,0 18.418636,0 14.654073,1.005777 11.206669,3.017692 7.7592655,5.029246 5.029966,7.758546 3.0180515,11.20595 1.0057774,14.653354 0,18.418277 0,22.499999 c 0,4.08172 1.006137,7.84629 3.0176919,11.29405 2.0119145,3.44632 4.741214,6.17634 8.1886181,8.18826 3.447403,2.01191 7.211967,3.01769 11.29405,3.01769 4.082082,0 7.847005,-1.00578 11.29405,-3.01769 3.447044,-2.01156 6.176343,-4.74122 8.188258,-8.18826 C 43.994223,30.346289 45,26.581359 45,22.499999 45,18.418277 43.994223,14.652994 41.983027,11.20595 Z m -8.232488,12.905019 -15.937814,9.37527 c -0.293067,0.17548 -0.605552,0.26322 -0.937455,0.26322 -0.312485,0 -0.62497,-0.078 -0.937455,-0.23409 -0.62497,-0.3711 -0.937455,-0.91768 -0.937455,-1.64046 V 13.12509 c 0,-0.72242 0.312485,-1.269358 0.937455,-1.640457 0.644388,-0.35168 1.269358,-0.341971 1.87491,0.02913 l 15.937814,9.374906 c 0.624611,0.35132 0.937096,0.88891 0.937096,1.61133 0,0.72242 -0.312485,1.25929 -0.937096,1.61097 z"
     id="path2"
     inkscape:connector-curvature="0"
     style="stroke-width:0.35959151;fill:#ffffff" /></svg>